<?xml version="1.0" encoding="UTF-8" standalone="no"?>
<svg
   viewBox="0 0 17.58239 13.289907"
   version="1.1"
   id="svg1"
   xml:space="preserve"
   xmlns="http://www.w3.org/2000/svg"
   xmlns:svg="http://www.w3.org/2000/svg"><defs
     id="defs1"><clipPath
       clipPathUnits="userSpaceOnUse"
       id="clipPath2"><path
         d="M 36,36 H 805.887 V 1154.551 H 36 Z"
         id="path2" /></clipPath><clipPath
       clipPathUnits="userSpaceOnUse"
       id="clipPath4"><path
         d="M 36,36 H 805.887 V 1148 H 36 Z"
         id="path4" /></clipPath><clipPath
       clipPathUnits="userSpaceOnUse"
       id="clipPath7"><path
         d="M 36,36 H 805.887 V 1147.5 H 36 Z"
         id="path7" /></clipPath><mask
       maskUnits="userSpaceOnUse"
       x="0"
       y="0"
       width="1"
       height="1"
       id="mask7"><path
         id="path9"
         d="M 0,0 H 1540 V 2224 H 0 Z"
         style="fill:url(#linearGradient9);stroke:none" /></mask><linearGradient
       x1="1440"
       y1="0"
       x2="1440"
       y2="1111.5"
       gradientUnits="userSpaceOnUse"
       spreadMethod="pad"
       id="linearGradient9"><stop
         style="stop-opacity:1;stop-color:#ffffff"
         offset="0"
         id="stop7" /><stop
         style="stop-opacity:0;stop-color:#ffffff"
         offset="0.5"
         id="stop8" /><stop
         style="stop-opacity:0;stop-color:#ffffff"
         offset="0.5"
         id="stop9" /></linearGradient><linearGradient
       x1="1440"
       y1="0"
       x2="1440"
       y2="1111.5"
       gradientUnits="userSpaceOnUse"
       gradientTransform="matrix(0.5,0,0,0.5,36,36)"
       spreadMethod="pad"
       id="linearGradient12"><stop
         style="stop-opacity:1;stop-color:#004f93"
         offset="0"
         id="stop10" /><stop
         style="stop-opacity:1;stop-color:#004f93"
         offset="0.5"
         id="stop11" /><stop
         style="stop-opacity:1;stop-color:#004f93"
         offset="0.5"
         id="stop12" /></linearGradient><clipPath
       clipPathUnits="userSpaceOnUse"
       id="clipPath13"><path
         d="M 36,36 H 805.887 V 1147.5 H 36 Z"
         transform="scale(1.3333333)"
         id="path13" /></clipPath><mask
       maskUnits="userSpaceOnUse"
       x="0"
       y="0"
       width="1"
       height="1"
       id="mask13"><path
         id="path15"
         d="M 0,0 H 1540 V 2224 H 0 Z"
         style="fill:url(#linearGradient15);stroke:none" /></mask><linearGradient
       x1="1440"
       y1="0"
       x2="1440"
       y2="1111.5"
       gradientUnits="userSpaceOnUse"
       spreadMethod="pad"
       id="linearGradient15"><stop
         style="stop-opacity:0.50196078;stop-color:#ffffff"
         offset="0"
         id="stop13" /><stop
         style="stop-opacity:0;stop-color:#ffffff"
         offset="0.5"
         id="stop14" /><stop
         style="stop-opacity:0;stop-color:#ffffff"
         offset="0.5"
         id="stop15" /></linearGradient><linearGradient
       x1="1440"
       y1="0"
       x2="1440"
       y2="1111.5"
       gradientUnits="userSpaceOnUse"
       gradientTransform="matrix(0.5,0,0,0.5,36,36)"
       spreadMethod="pad"
       id="linearGradient18"><stop
         style="stop-opacity:1;stop-color:#000000"
         offset="0"
         id="stop16" /><stop
         style="stop-opacity:1;stop-color:#000000"
         offset="0.5"
         id="stop17" /><stop
         style="stop-opacity:1;stop-color:#000000"
         offset="0.5"
         id="stop18" /></linearGradient><clipPath
       clipPathUnits="userSpaceOnUse"
       id="clipPath19"><path
         d="M 36,36 H 805.887 V 1147.5 H 36 Z"
         transform="scale(1.3333333)"
         id="path19" /></clipPath><clipPath
       clipPathUnits="userSpaceOnUse"
       id="clipPath34"><path
         d="M 36,36 H 805.887 V 98 H 36 Z"
         id="path34" /></clipPath></defs><path
     id="path37"
     d="m 0.5126303,10.887985 v 1.37666 c 0,0.187069 0.03514,0.330729 0.1074869,0.429948 0.074414,0.09922 0.19430344,0.148828 0.35966804,0.148828 0.16536456,0 0.28318686,-0.04961 0.35553386,-0.148828 0.074414,-0.09922 0.1116211,-0.242879 0.1116211,-0.429948 v -1.37666 h 0.5126302 v 1.347721 c 0,0.349333 -0.084749,0.612883 -0.252181,0.789616 -0.1653646,0.1757 -0.4082438,0.264584 -0.72760416,0.264584 -0.32039384,0 -0.56430664,-0.08888 -0.73173834,-0.264584 C 0.0826823,12.848589 0,12.585039 0,12.235706 v -1.347721 z m 1.7983399,2.372982 v -2.372982 h 0.4588867 l 1.0087239,1.49655 v -1.49655 h 0.500228 v 2.372982 h -0.458887 l -1.0128579,-1.49655 v 1.49655 z m 3.0220377,-2.372982 h 1.872754 v 0.44235 H 6.5194987 v 1.930632 H 6.0068685 V 11.330335 H 5.3330079 Z m 2.1456054,2.277897 C 7.3432211,13.101803 7.2347006,12.998451 7.1520184,12.855824 7.0796714,12.740068 7.0445312,12.584006 7.0445312,12.388669 c 0,-0.19327 0.03514,-0.347266 0.1074872,-0.463021 0.082682,-0.143661 0.1860352,-0.250114 0.3100585,-0.318327 0.1260905,-0.06615 0.2904214,-0.09922 0.4919595,-0.09922 0.2036054,0 0.3638021,0.03514 0.4795573,0.107487 0.1457276,0.06304 0.2563153,0.163298 0.3307292,0.301791 0.076481,0.14056 0.1157549,0.297656 0.1157549,0.471289 0,0.1757 -0.03927,0.332796 -0.1157549,0.471289 -0.074414,0.14056 -0.1850016,0.241845 -0.3307292,0.305924 -0.1798338,0.08268 -0.3369303,0.124024 -0.4712889,0.124024 -0.1881022,0 -0.3493325,-0.04134 -0.4836915,-0.124023 z m 0.79375,-0.417545 c 0.082682,-0.08062 0.1240236,-0.197404 0.1240236,-0.3514 0,-0.151929 -0.041341,-0.275952 -0.1240236,-0.37207 -0.080615,-0.09405 -0.1860352,-0.14056 -0.3183269,-0.14056 -0.1302244,0 -0.2335773,0.04341 -0.3100585,0.132291 -0.074414,0.09095 -0.111621,0.211874 -0.111621,0.363802 0,0.153996 0.037207,0.27802 0.111621,0.372071 0.076481,0.09612 0.1798341,0.144694 0.3100585,0.144694 0.1322917,0 0.2377119,-0.04961 0.3183269,-0.148828 z m 2.4722007,-1.227832 v 1.740462 h -0.42168 l -0.03721,-0.202572 c -0.07441,0.07131 -0.147794,0.125057 -0.219107,0.161231 -0.08888,0.04651 -0.1860362,0.07028 -0.2935232,0.07028 -0.209806,0 -0.378271,-0.06408 -0.504362,-0.19017 -0.12402,-0.127124 -0.186032,-0.337964 -0.186032,-0.632519 v -0.946712 h 0.471289 v 0.888834 c 0,0.153996 0.02584,0.270785 0.07855,0.3514 0.05478,0.08268 0.142627,0.124023 0.264584,0.124023 0.1240232,0 0.2160072,-0.04134 0.2769852,-0.124023 0.06304,-0.08061 0.09508,-0.205672 0.09508,-0.376204 v -0.86403 z m 1.360124,0 v 0.434082 h -0.186035 c -0.127124,0 -0.225309,0.03721 -0.293523,0.111621 -0.06615,0.07648 -0.09922,0.191203 -0.09922,0.343131 v 0.851628 h -0.487825 v -1.740462 h 0.446485 l 0.04134,0.256315 c 0.06304,-0.09922 0.12609,-0.163298 0.190169,-0.19017 0.08785,-0.04444 0.191203,-0.06614 0.310059,-0.06614 z m 0.620117,-0.649056 c 0.05478,0.05581 0.08268,0.118855 0.08268,0.190169 0,0.07235 -0.02791,0.134359 -0.08268,0.186035 -0.05271,0.05478 -0.119889,0.08268 -0.202571,0.08268 -0.08061,0 -0.144694,-0.02791 -0.194304,-0.08268 -0.04961,-0.05168 -0.07441,-0.113688 -0.07441,-0.186035 0,-0.07131 0.0248,-0.133325 0.07441,-0.186035 0.04961,-0.05478 0.113689,-0.08268 0.194304,-0.08268 0.08268,0 0.149861,0.02687 0.202571,0.07855 z m -0.44235,0.649056 h 0.483691 v 1.740462 h -0.483691 z m 1.174089,1.161686 c 0,0.07131 0.03514,0.133325 0.107487,0.186035 0.05168,0.04651 0.134358,0.07028 0.248046,0.07028 0.112655,0 0.198438,-0.01654 0.256316,-0.04961 0.05788,-0.03101 0.08682,-0.07442 0.08682,-0.132292 0,-0.05788 -0.01137,-0.09405 -0.03307,-0.107487 -0.02274,-0.01447 -0.06511,-0.03101 -0.128158,-0.04961 -0.06408,-0.01654 -0.144693,-0.03101 -0.243912,-0.04134 -0.135392,-0.0083 -0.259416,-0.02894 -0.372071,-0.06201 -0.110587,-0.03101 -0.19637,-0.08062 -0.256315,-0.148828 -0.05788,-0.06615 -0.08682,-0.159164 -0.08682,-0.276986 0,-0.115755 0.02894,-0.213941 0.08682,-0.293522 0.05995,-0.08062 0.148828,-0.151929 0.264584,-0.214974 0.09095,-0.04444 0.221175,-0.06615 0.39274,-0.06615 0.233578,0 0.422714,0.04754 0.566374,0.144694 0.142627,0.09922 0.224276,0.239779 0.243913,0.42168 h -0.446484 c -0.0083,-0.06408 -0.04754,-0.118856 -0.115756,-0.165365 -0.06615,-0.04444 -0.140559,-0.06615 -0.223242,-0.06615 -0.08061,0 -0.156063,0.01757 -0.227376,0.05374 -0.05581,0.02687 -0.08268,0.07235 -0.08268,0.136425 0,0.03514 0.01344,0.06615 0.04134,0.09095 0.02687,0.02687 0.06821,0.04134 0.124023,0.04134 0.03514,0.01034 0.111621,0.02481 0.227377,0.04134 0.250113,0.02687 0.430981,0.07648 0.541569,0.148828 0.124023,0.08268 0.186035,0.208773 0.186035,0.380339 0,0.107487 -0.03514,0.204639 -0.103353,0.293522 -0.06615,0.09095 -0.159164,0.15813 -0.276986,0.202572 -0.115755,0.04651 -0.250114,0.07028 -0.401009,0.07028 -0.242879,0 -0.438216,-0.05581 -0.587044,-0.165365 -0.148829,-0.107487 -0.231511,-0.255282 -0.248047,-0.44235 z m 3.952213,-1.000456 c 0.115755,0.126091 0.173633,0.332796 0.173633,0.620117 v 0.959115 H 17.111101 V 12.28945 c 0,-0.262516 -0.103353,-0.392741 -0.310059,-0.392741 -0.09922,0 -0.180867,0.03307 -0.243912,0.09922 -0.06408,0.06821 -0.09508,0.1757 -0.09508,0.322461 v 0.942578 h -0.483697 v -0.971517 c 0,-0.262516 -0.09922,-0.392741 -0.297656,-0.392741 -0.107487,0 -0.193269,0.03514 -0.256315,0.107487 -0.06408,0.07441 -0.09508,0.1788 -0.09508,0.314193 v 0.942578 h -0.471289 v -1.740462 h 0.417546 l 0.04134,0.214974 c 0.09095,-0.08888 0.162264,-0.146762 0.214974,-0.173633 0.07131,-0.03617 0.170533,-0.05374 0.297656,-0.05374 0.261483,0 0.436149,0.09302 0.525033,0.28112 0.06305,-0.08888 0.144694,-0.160197 0.243913,-0.214974 0.07958,-0.04444 0.19637,-0.06615 0.351399,-0.06615 0.19017,0 0.343132,0.05788 0.458887,0.173633 z M 5.1138998,3.0869111 c 0.4320152,-0.22531 0.936377,-0.410311 1.5130861,-0.553971 0.2253093,-0.05168 0.5767088,-0.08785 1.0541991,-0.107488 0.1240233,-0.0083 0.2170409,-0.001 0.2811198,0.02067 0.063045,0.02274 0.1126547,0.05168 0.1488281,0.08682 0.071313,0.06408 0.1209227,0.16123 0.1488282,0.293522 0.026871,0.130225 0.041341,0.324528 0.041341,0.58291 v 2.914551 c 0,0.118856 -0.032039,0.213941 -0.095084,0.285254 -0.09095,0.09922 -0.2439127,0.180868 -0.4588866,0.243913 -0.2893882,0.08061 -0.6356202,0.147794 -1.0376627,0.202571 -0.3255617,0.04444 -0.5808433,0.06615 -0.7648113,0.06615 -0.1850016,0 -0.3493326,-0.02687 -0.4919596,-0.08268 C 5.2647952,6.9874471 5.1345704,6.8975301 5.0601562,6.7704061 4.8172772,6.3931681 4.6395103,6.0045611 4.5268557,5.6045851 4.4162679,5.2056431 4.3614911,4.7798291 4.3614911,4.3271441 c 0,-0.250114 0.075448,-0.497127 0.2273762,-0.740007 0.1539956,-0.241845 0.3286622,-0.409277 0.5250325,-0.500228 z m 6.3706712,4.278809 c 0,0.09922 0.04961,0.16123 0.148828,0.186034 0.04341,0.01964 0.09508,0.02791 0.152962,0.0248 0.05995,-0.0052 0.104386,-0.0217 0.132292,-0.04961 0.413412,-0.413412 0.731738,-0.885734 0.95498,-1.418001 0.233578,-0.547771 0.3514,-1.124479 0.3514,-1.72806 0,-0.393775 -0.06408,-0.81132 -0.190169,-1.252637 -0.01653,-0.05478 -0.04858,-0.115755 -0.09508,-0.181901 -0.04444,-0.06821 -0.08888,-0.115755 -0.132291,-0.14056 -0.115756,-0.05478 -0.251148,-0.05994 -0.405144,-0.01654 l -0.136425,0.04134 c -0.42168,0.143661 -0.718303,0.238746 -0.888835,0.285254 -0.297657,0.08062 -0.518832,0.11989 -0.661459,0.11989 -0.179834,0 -0.570507,-0.130225 -1.1740882,-0.392741 l -0.04134,-0.0124 c -0.08888,-0.04341 -0.169499,-0.04341 -0.243913,0 -0.07235,0.04444 -0.107487,0.121956 -0.107487,0.23151 v 0.971517 c 0,0.124024 0.03307,0.250114 0.09922,0.376205 0.06821,0.127124 0.152962,0.212907 0.252181,0.256315 0.5953122,0.270784 1.0045902,0.47749 1.2278322,0.620117 0.297656,0.198437 0.47749,0.405143 0.541569,0.620117 0.02687,0.107487 0.06305,0.314193 0.107487,0.620117 0.04341,0.305925 0.07958,0.586011 0.107487,0.839226 z m -2.6830412,1.442805 c 0.250114,0 0.510564,-0.0248 0.781348,-0.07441 0.269751,-0.04961 0.4981612,-0.109554 0.6862632,-0.181901 0.225309,-0.09095 0.392741,-0.198437 0.500228,-0.322461 0.117822,-0.145727 0.171566,-0.340031 0.16123,-0.58291 -0.0083,-0.241845 -0.03617,-0.527099 -0.08268,-0.855762 -0.04444,-0.327628 -0.08268,-0.541569 -0.115755,-0.640787 -0.03101,-0.09922 -0.135392,-0.202572 -0.314193,-0.310059 -0.198437,-0.107487 -0.4950602,-0.224275 -0.8888342,-0.3514 -0.127124,-0.03514 -0.235645,-0.01757 -0.326595,0.05374 -0.0248,0.01964 -0.05168,0.05168 -0.07855,0.09508 -0.02791,0.04444 -0.04547,0.09405 -0.05374,0.148828 -0.01964,0.386539 -0.07338,0.696598 -0.161231,0.930176 -0.1188554,0.279052 -0.2997232,0.46302 -0.5415689,0.553971 l -0.4175453,0.136426 c -0.4857585,0.124023 -0.91674,0.200504 -1.293978,0.227376 -0.1271242,0.0083 -0.2211751,0.04444 -0.2811198,0.107487 -0.057878,0.06408 -0.080615,0.131258 -0.066146,0.202571 0.013437,0.07235 0.055811,0.131259 0.1281574,0.177767 0.3327965,0.214974 0.703833,0.38344 1.112077,0.504362 0.4103109,0.121957 0.8278565,0.181901 1.2526366,0.181901 z m -3.5512042,-6.37067 c 0.1260906,-0.05168 0.3079916,-0.121957 0.5457032,-0.21084 0.2397784,-0.09095 0.4640544,-0.167432 0.6738606,-0.231511 0.2118734,-0.06304 0.7451742,-0.112654 1.5999022,-0.148828 0.1901695,-0.0083 0.31626,-0.05374 0.3803386,-0.136425 0.043408,-0.06305 0.066146,-0.188103 0.066146,-0.376205 V 0.49482103 c 0,-0.206706 -0.048576,-0.345199 -0.1446939,-0.417546 -0.094051,-0.07131 -0.2087729,-0.09302 -0.3431314,-0.06615 -0.6480225,0.115756 -1.2392008,0.358635 -1.7735353,0.72760502 C 5.7195478,1.1087331 5.2813318,1.5851901 4.9402673,2.1691331 c -0.019636,0.03617 -0.028938,0.07751 -0.028938,0.124024 0,0.04444 0.013437,0.08268 0.041341,0.115755 0.026871,0.03101 0.067179,0.04858 0.1198894,0.05374 0.054777,0.0031 0.1136879,-0.0052 0.1777668,-0.0248 z M 12.389942,1.7763971 C 12.084018,1.3547171 11.718148,1.0012501 11.294401,0.71392905 10.844816,0.40800403 10.364226,0.19613103 9.8515958,0.07727503 c -0.163298,-0.04341 -0.274919,0.0155 -0.334864,0.177767 -0.03927,0.09922 -0.05788,0.264584 -0.05788,0.49609402 0,0.181901 -0.0041,0.30489105 -0.0124,0.36793605 -0.01654,0.09715 -0.05271,0.163298 -0.107487,0.198438 -0.01653,0.01964 -0.04961,0.04031 -0.09922,0.06201 -0.04961,0.02274 -0.08475,0.04754 -0.103353,0.07441 -0.03617,0.04444 -0.05374,0.121956 -0.05374,0.23151 v 0.0248 c 0,0.09922 0.0248,0.183968 0.07441,0.25218 0.04961,0.06615 0.145728,0.135393 0.289388,0.206706 0.217042,0.118856 0.438217,0.226343 0.6614592,0.322461 0.305924,0.118856 0.508496,0.177767 0.607714,0.177767 0.269752,0 0.728638,-0.09509 1.376661,-0.285254 0.214974,-0.07131 0.335897,-0.157096 0.363802,-0.256315 0.0186,-0.04341 0.0217,-0.09922 0.0083,-0.165365 -0.01447,-0.06821 -0.03927,-0.130224 -0.07441,-0.186034 z m 0,0"
     style="fill:#0022f5;fill-opacity:1;fill-rule:nonzero;stroke:none;stroke-width:0.352778" /></svg>
