<?xml version="1.0" encoding="utf-8" standalone="no"?>
<!DOCTYPE svg PUBLIC "-//W3C//DTD SVG 1.1//EN"
  "http://www.w3.org/Graphics/SVG/1.1/DTD/svg11.dtd">
<svg xmlns:xlink="http://www.w3.org/1999/xlink" width="288pt" height="216pt" viewBox="0 0 288 216" xmlns="http://www.w3.org/2000/svg" version="1.1">
 <metadata>
  <rdf:RDF xmlns:dc="http://purl.org/dc/elements/1.1/" xmlns:cc="http://creativecommons.org/ns#" xmlns:rdf="http://www.w3.org/1999/02/22-rdf-syntax-ns#">
   <cc:Work>
    <dc:type rdf:resource="http://purl.org/dc/dcmitype/StillImage"/>
    <dc:date>2025-01-05T22:44:43.229141</dc:date>
    <dc:format>image/svg+xml</dc:format>
    <dc:creator>
     <cc:Agent>
      <dc:title>Matplotlib v3.9.3, https://matplotlib.org/</dc:title>
     </cc:Agent>
    </dc:creator>
   </cc:Work>
  </rdf:RDF>
 </metadata>
 <defs>
  <style type="text/css">*{stroke-linejoin: round; stroke-linecap: butt}</style>
 </defs>
 <g id="figure_1">
  <g id="patch_1">
   <path d="M 0 216 
L 288 216 
L 288 0 
L 0 0 
z
" style="fill: #ffffff"/>
  </g>
  <g id="axes_1">
   <g id="patch_2">
    <path d="M 230.76 109.08 
C 230.76 98.159529 228.608905 87.345246 224.429822 77.256046 
C 220.250739 67.166846 214.124939 57.998939 206.403 50.277 
C 198.681061 42.555061 189.513154 36.429261 179.423954 32.250178 
C 169.334754 28.071095 158.520471 25.92 147.6 25.92 
C 136.679529 25.92 125.865246 28.071095 115.776046 32.250178 
C 105.686846 36.429261 96.518939 42.555061 88.797 50.277 
C 81.075061 57.998939 74.949261 67.166846 70.770178 77.256046 
C 66.591095 87.345246 64.44 98.159529 64.44 109.08 
C 64.44 120.000471 66.591095 130.814754 70.770178 140.903954 
C 74.949261 150.993154 81.075061 160.161061 88.797 167.883 
C 96.518939 175.604939 105.686846 181.730739 115.776046 185.909822 
C 125.865246 190.088905 136.679529 192.24 147.6 192.24 
C 158.520471 192.24 169.334754 190.088905 179.423954 185.909822 
C 189.513154 181.730739 198.681061 175.604939 206.403 167.883 
C 214.124939 160.161061 220.250739 150.993154 224.429822 140.903954 
C 228.608905 130.814754 230.76 120.000471 230.76 109.08 
M 147.6 109.08 
C 147.6 109.08 147.6 109.08 147.6 109.08 
C 147.6 109.08 147.6 109.08 147.6 109.08 
C 147.6 109.08 147.6 109.08 147.6 109.08 
C 147.6 109.08 147.6 109.08 147.6 109.08 
C 147.6 109.08 147.6 109.08 147.6 109.08 
C 147.6 109.08 147.6 109.08 147.6 109.08 
C 147.6 109.08 147.6 109.08 147.6 109.08 
C 147.6 109.08 147.6 109.08 147.6 109.08 
C 147.6 109.08 147.6 109.08 147.6 109.08 
C 147.6 109.08 147.6 109.08 147.6 109.08 
C 147.6 109.08 147.6 109.08 147.6 109.08 
C 147.6 109.08 147.6 109.08 147.6 109.08 
C 147.6 109.08 147.6 109.08 147.6 109.08 
C 147.6 109.08 147.6 109.08 147.6 109.08 
C 147.6 109.08 147.6 109.08 147.6 109.08 
C 147.6 109.08 147.6 109.08 147.6 109.08 
z
" style="fill: #ffffff"/>
   </g>
   <g id="patch_3">
    <path d="M 203.744469 109.08 
L 116.098953 54.518587 
L 106.940998 179.503457 
z
" clip-path="url(#pb0197b048b)" style="fill: #1f77b4; opacity: 0.5"/>
   </g>
   <g id="patch_4">
    <path d="M 209.86932 109.08 
L 115.593143 53.642497 
L 120.734261 155.612825 
z
" clip-path="url(#pb0197b048b)" style="fill: #ff7f0e; opacity: 0.5"/>
   </g>
   <g id="patch_5">
    <path d="M 192.078086 109.08 
L 112.342264 48.01181 
L 119.166822 158.327709 
z
" clip-path="url(#pb0197b048b)" style="fill: #2ca02c; opacity: 0.5"/>
   </g>
   <g id="matplotlib.axis_1">
    <g id="xtick_1">
     <g id="line2d_1">
      <path d="M 147.6 109.08 
L 230.76 109.08 
" clip-path="url(#pb0197b048b)" style="fill: none; stroke: #b0b0b0; stroke-width: 0.8; stroke-linecap: square"/>
     </g>
     <g id="text_1">
      <!-- Safety -->
      <g transform="translate(228.765469 111.839375) scale(0.1 -0.1)">
       <defs>
        <path id="DejaVuSans-53" d="M 3425 4513 
L 3425 3897 
Q 3066 4069 2747 4153 
Q 2428 4238 2131 4238 
Q 1616 4238 1336 4038 
Q 1056 3838 1056 3469 
Q 1056 3159 1242 3001 
Q 1428 2844 1947 2747 
L 2328 2669 
Q 3034 2534 3370 2195 
Q 3706 1856 3706 1288 
Q 3706 609 3251 259 
Q 2797 -91 1919 -91 
Q 1588 -91 1214 -16 
Q 841 59 441 206 
L 441 856 
Q 825 641 1194 531 
Q 1563 422 1919 422 
Q 2459 422 2753 634 
Q 3047 847 3047 1241 
Q 3047 1584 2836 1778 
Q 2625 1972 2144 2069 
L 1759 2144 
Q 1053 2284 737 2584 
Q 422 2884 422 3419 
Q 422 4038 858 4394 
Q 1294 4750 2059 4750 
Q 2388 4750 2728 4690 
Q 3069 4631 3425 4513 
z
" transform="scale(0.015625)"/>
        <path id="DejaVuSans-61" d="M 2194 1759 
Q 1497 1759 1228 1600 
Q 959 1441 959 1056 
Q 959 750 1161 570 
Q 1363 391 1709 391 
Q 2188 391 2477 730 
Q 2766 1069 2766 1631 
L 2766 1759 
L 2194 1759 
z
M 3341 1997 
L 3341 0 
L 2766 0 
L 2766 531 
Q 2569 213 2275 61 
Q 1981 -91 1556 -91 
Q 1019 -91 701 211 
Q 384 513 384 1019 
Q 384 1609 779 1909 
Q 1175 2209 1959 2209 
L 2766 2209 
L 2766 2266 
Q 2766 2663 2505 2880 
Q 2244 3097 1772 3097 
Q 1472 3097 1187 3025 
Q 903 2953 641 2809 
L 641 3341 
Q 956 3463 1253 3523 
Q 1550 3584 1831 3584 
Q 2591 3584 2966 3190 
Q 3341 2797 3341 1997 
z
" transform="scale(0.015625)"/>
        <path id="DejaVuSans-66" d="M 2375 4863 
L 2375 4384 
L 1825 4384 
Q 1516 4384 1395 4259 
Q 1275 4134 1275 3809 
L 1275 3500 
L 2222 3500 
L 2222 3053 
L 1275 3053 
L 1275 0 
L 697 0 
L 697 3053 
L 147 3053 
L 147 3500 
L 697 3500 
L 697 3744 
Q 697 4328 969 4595 
Q 1241 4863 1831 4863 
L 2375 4863 
z
" transform="scale(0.015625)"/>
        <path id="DejaVuSans-65" d="M 3597 1894 
L 3597 1613 
L 953 1613 
Q 991 1019 1311 708 
Q 1631 397 2203 397 
Q 2534 397 2845 478 
Q 3156 559 3463 722 
L 3463 178 
Q 3153 47 2828 -22 
Q 2503 -91 2169 -91 
Q 1331 -91 842 396 
Q 353 884 353 1716 
Q 353 2575 817 3079 
Q 1281 3584 2069 3584 
Q 2775 3584 3186 3129 
Q 3597 2675 3597 1894 
z
M 3022 2063 
Q 3016 2534 2758 2815 
Q 2500 3097 2075 3097 
Q 1594 3097 1305 2825 
Q 1016 2553 972 2059 
L 3022 2063 
z
" transform="scale(0.015625)"/>
        <path id="DejaVuSans-74" d="M 1172 4494 
L 1172 3500 
L 2356 3500 
L 2356 3053 
L 1172 3053 
L 1172 1153 
Q 1172 725 1289 603 
Q 1406 481 1766 481 
L 2356 481 
L 2356 0 
L 1766 0 
Q 1100 0 847 248 
Q 594 497 594 1153 
L 594 3053 
L 172 3053 
L 172 3500 
L 594 3500 
L 594 4494 
L 1172 4494 
z
" transform="scale(0.015625)"/>
        <path id="DejaVuSans-79" d="M 2059 -325 
Q 1816 -950 1584 -1140 
Q 1353 -1331 966 -1331 
L 506 -1331 
L 506 -850 
L 844 -850 
Q 1081 -850 1212 -737 
Q 1344 -625 1503 -206 
L 1606 56 
L 191 3500 
L 800 3500 
L 1894 763 
L 2988 3500 
L 3597 3500 
L 2059 -325 
z
" transform="scale(0.015625)"/>
       </defs>
       <use xlink:href="#DejaVuSans-53"/>
       <use xlink:href="#DejaVuSans-61" x="63.476562"/>
       <use xlink:href="#DejaVuSans-66" x="124.755859"/>
       <use xlink:href="#DejaVuSans-65" x="159.960938"/>
       <use xlink:href="#DejaVuSans-74" x="221.484375"/>
       <use xlink:href="#DejaVuSans-79" x="260.693359"/>
      </g>
     </g>
    </g>
    <g id="xtick_2">
     <g id="line2d_2">
      <path d="M 147.6 109.08 
L 106.02 37.061327 
" clip-path="url(#pb0197b048b)" style="fill: none; stroke: #b0b0b0; stroke-width: 0.8; stroke-linecap: square"/>
     </g>
     <g id="text_2">
      <!-- Affordability -->
      <g transform="translate(68.734063 27.696347) scale(0.1 -0.1)">
       <defs>
        <path id="DejaVuSans-41" d="M 2188 4044 
L 1331 1722 
L 3047 1722 
L 2188 4044 
z
M 1831 4666 
L 2547 4666 
L 4325 0 
L 3669 0 
L 3244 1197 
L 1141 1197 
L 716 0 
L 50 0 
L 1831 4666 
z
" transform="scale(0.015625)"/>
        <path id="DejaVuSans-6f" d="M 1959 3097 
Q 1497 3097 1228 2736 
Q 959 2375 959 1747 
Q 959 1119 1226 758 
Q 1494 397 1959 397 
Q 2419 397 2687 759 
Q 2956 1122 2956 1747 
Q 2956 2369 2687 2733 
Q 2419 3097 1959 3097 
z
M 1959 3584 
Q 2709 3584 3137 3096 
Q 3566 2609 3566 1747 
Q 3566 888 3137 398 
Q 2709 -91 1959 -91 
Q 1206 -91 779 398 
Q 353 888 353 1747 
Q 353 2609 779 3096 
Q 1206 3584 1959 3584 
z
" transform="scale(0.015625)"/>
        <path id="DejaVuSans-72" d="M 2631 2963 
Q 2534 3019 2420 3045 
Q 2306 3072 2169 3072 
Q 1681 3072 1420 2755 
Q 1159 2438 1159 1844 
L 1159 0 
L 581 0 
L 581 3500 
L 1159 3500 
L 1159 2956 
Q 1341 3275 1631 3429 
Q 1922 3584 2338 3584 
Q 2397 3584 2469 3576 
Q 2541 3569 2628 3553 
L 2631 2963 
z
" transform="scale(0.015625)"/>
        <path id="DejaVuSans-64" d="M 2906 2969 
L 2906 4863 
L 3481 4863 
L 3481 0 
L 2906 0 
L 2906 525 
Q 2725 213 2448 61 
Q 2172 -91 1784 -91 
Q 1150 -91 751 415 
Q 353 922 353 1747 
Q 353 2572 751 3078 
Q 1150 3584 1784 3584 
Q 2172 3584 2448 3432 
Q 2725 3281 2906 2969 
z
M 947 1747 
Q 947 1113 1208 752 
Q 1469 391 1925 391 
Q 2381 391 2643 752 
Q 2906 1113 2906 1747 
Q 2906 2381 2643 2742 
Q 2381 3103 1925 3103 
Q 1469 3103 1208 2742 
Q 947 2381 947 1747 
z
" transform="scale(0.015625)"/>
        <path id="DejaVuSans-62" d="M 3116 1747 
Q 3116 2381 2855 2742 
Q 2594 3103 2138 3103 
Q 1681 3103 1420 2742 
Q 1159 2381 1159 1747 
Q 1159 1113 1420 752 
Q 1681 391 2138 391 
Q 2594 391 2855 752 
Q 3116 1113 3116 1747 
z
M 1159 2969 
Q 1341 3281 1617 3432 
Q 1894 3584 2278 3584 
Q 2916 3584 3314 3078 
Q 3713 2572 3713 1747 
Q 3713 922 3314 415 
Q 2916 -91 2278 -91 
Q 1894 -91 1617 61 
Q 1341 213 1159 525 
L 1159 0 
L 581 0 
L 581 4863 
L 1159 4863 
L 1159 2969 
z
" transform="scale(0.015625)"/>
        <path id="DejaVuSans-69" d="M 603 3500 
L 1178 3500 
L 1178 0 
L 603 0 
L 603 3500 
z
M 603 4863 
L 1178 4863 
L 1178 4134 
L 603 4134 
L 603 4863 
z
" transform="scale(0.015625)"/>
        <path id="DejaVuSans-6c" d="M 603 4863 
L 1178 4863 
L 1178 0 
L 603 0 
L 603 4863 
z
" transform="scale(0.015625)"/>
       </defs>
       <use xlink:href="#DejaVuSans-41"/>
       <use xlink:href="#DejaVuSans-66" x="64.783203"/>
       <use xlink:href="#DejaVuSans-66" x="99.988281"/>
       <use xlink:href="#DejaVuSans-6f" x="135.193359"/>
       <use xlink:href="#DejaVuSans-72" x="196.375"/>
       <use xlink:href="#DejaVuSans-64" x="235.738281"/>
       <use xlink:href="#DejaVuSans-61" x="299.214844"/>
       <use xlink:href="#DejaVuSans-62" x="360.494141"/>
       <use xlink:href="#DejaVuSans-69" x="423.970703"/>
       <use xlink:href="#DejaVuSans-6c" x="451.753906"/>
       <use xlink:href="#DejaVuSans-69" x="479.537109"/>
       <use xlink:href="#DejaVuSans-74" x="507.320312"/>
       <use xlink:href="#DejaVuSans-79" x="546.529297"/>
      </g>
     </g>
    </g>
    <g id="xtick_3">
     <g id="line2d_3">
      <path d="M 147.6 109.08 
L 106.02 181.098673 
" clip-path="url(#pb0197b048b)" style="fill: none; stroke: #b0b0b0; stroke-width: 0.8; stroke-linecap: square"/>
     </g>
     <g id="text_3">
      <!-- Attractiveness -->
      <g transform="translate(63.058281 195.982403) scale(0.1 -0.1)">
       <defs>
        <path id="DejaVuSans-63" d="M 3122 3366 
L 3122 2828 
Q 2878 2963 2633 3030 
Q 2388 3097 2138 3097 
Q 1578 3097 1268 2742 
Q 959 2388 959 1747 
Q 959 1106 1268 751 
Q 1578 397 2138 397 
Q 2388 397 2633 464 
Q 2878 531 3122 666 
L 3122 134 
Q 2881 22 2623 -34 
Q 2366 -91 2075 -91 
Q 1284 -91 818 406 
Q 353 903 353 1747 
Q 353 2603 823 3093 
Q 1294 3584 2113 3584 
Q 2378 3584 2631 3529 
Q 2884 3475 3122 3366 
z
" transform="scale(0.015625)"/>
        <path id="DejaVuSans-76" d="M 191 3500 
L 800 3500 
L 1894 563 
L 2988 3500 
L 3597 3500 
L 2284 0 
L 1503 0 
L 191 3500 
z
" transform="scale(0.015625)"/>
        <path id="DejaVuSans-6e" d="M 3513 2113 
L 3513 0 
L 2938 0 
L 2938 2094 
Q 2938 2591 2744 2837 
Q 2550 3084 2163 3084 
Q 1697 3084 1428 2787 
Q 1159 2491 1159 1978 
L 1159 0 
L 581 0 
L 581 3500 
L 1159 3500 
L 1159 2956 
Q 1366 3272 1645 3428 
Q 1925 3584 2291 3584 
Q 2894 3584 3203 3211 
Q 3513 2838 3513 2113 
z
" transform="scale(0.015625)"/>
        <path id="DejaVuSans-73" d="M 2834 3397 
L 2834 2853 
Q 2591 2978 2328 3040 
Q 2066 3103 1784 3103 
Q 1356 3103 1142 2972 
Q 928 2841 928 2578 
Q 928 2378 1081 2264 
Q 1234 2150 1697 2047 
L 1894 2003 
Q 2506 1872 2764 1633 
Q 3022 1394 3022 966 
Q 3022 478 2636 193 
Q 2250 -91 1575 -91 
Q 1294 -91 989 -36 
Q 684 19 347 128 
L 347 722 
Q 666 556 975 473 
Q 1284 391 1588 391 
Q 1994 391 2212 530 
Q 2431 669 2431 922 
Q 2431 1156 2273 1281 
Q 2116 1406 1581 1522 
L 1381 1569 
Q 847 1681 609 1914 
Q 372 2147 372 2553 
Q 372 3047 722 3315 
Q 1072 3584 1716 3584 
Q 2034 3584 2315 3537 
Q 2597 3491 2834 3397 
z
" transform="scale(0.015625)"/>
       </defs>
       <use xlink:href="#DejaVuSans-41"/>
       <use xlink:href="#DejaVuSans-74" x="66.658203"/>
       <use xlink:href="#DejaVuSans-74" x="105.867188"/>
       <use xlink:href="#DejaVuSans-72" x="145.076172"/>
       <use xlink:href="#DejaVuSans-61" x="186.189453"/>
       <use xlink:href="#DejaVuSans-63" x="247.46875"/>
       <use xlink:href="#DejaVuSans-74" x="302.449219"/>
       <use xlink:href="#DejaVuSans-69" x="341.658203"/>
       <use xlink:href="#DejaVuSans-76" x="369.441406"/>
       <use xlink:href="#DejaVuSans-65" x="428.621094"/>
       <use xlink:href="#DejaVuSans-6e" x="490.144531"/>
       <use xlink:href="#DejaVuSans-65" x="553.523438"/>
       <use xlink:href="#DejaVuSans-73" x="615.046875"/>
       <use xlink:href="#DejaVuSans-73" x="667.146484"/>
      </g>
     </g>
    </g>
   </g>
   <g id="matplotlib.axis_2">
    <g id="ytick_1">
     <g id="line2d_4">
      <path d="M 168.100791 109.08 
C 168.100791 106.387861 167.570498 103.721899 166.540261 101.234687 
C 165.510024 98.747475 163.999878 96.487381 162.096248 94.583752 
C 160.192619 92.680122 157.932525 91.169976 155.445313 90.139739 
C 152.958101 89.109502 150.292139 88.579209 147.6 88.579209 
C 144.907861 88.579209 142.241899 89.109502 139.754687 90.139739 
C 137.267475 91.169976 135.007381 92.680122 133.103752 94.583752 
C 131.200122 96.487381 129.689976 98.747475 128.659739 101.234687 
C 127.629502 103.721899 127.099209 106.387861 127.099209 109.08 
C 127.099209 111.772139 127.629502 114.438101 128.659739 116.925313 
C 129.689976 119.412525 131.200122 121.672619 133.103752 123.576248 
C 135.007381 125.479878 137.267475 126.990024 139.754687 128.020261 
C 142.241899 129.050498 144.907861 129.580791 147.6 129.580791 
C 150.292139 129.580791 152.958101 129.050498 155.445313 128.020261 
C 157.932525 126.990024 160.192619 125.479878 162.096248 123.576248 
C 163.999878 121.672619 165.510024 119.412525 166.540261 116.925313 
C 167.570498 114.438101 168.100791 111.772139 168.100791 109.08 
" clip-path="url(#pb0197b048b)" style="fill: none; stroke: #b0b0b0; stroke-width: 0.8; stroke-linecap: square"/>
     </g>
     <g id="text_4">
      <!-- 0.2 -->
      <g transform="translate(166.540261 99.154999) scale(0.1 -0.1)">
       <defs>
        <path id="DejaVuSans-30" d="M 2034 4250 
Q 1547 4250 1301 3770 
Q 1056 3291 1056 2328 
Q 1056 1369 1301 889 
Q 1547 409 2034 409 
Q 2525 409 2770 889 
Q 3016 1369 3016 2328 
Q 3016 3291 2770 3770 
Q 2525 4250 2034 4250 
z
M 2034 4750 
Q 2819 4750 3233 4129 
Q 3647 3509 3647 2328 
Q 3647 1150 3233 529 
Q 2819 -91 2034 -91 
Q 1250 -91 836 529 
Q 422 1150 422 2328 
Q 422 3509 836 4129 
Q 1250 4750 2034 4750 
z
" transform="scale(0.015625)"/>
        <path id="DejaVuSans-2e" d="M 684 794 
L 1344 794 
L 1344 0 
L 684 0 
L 684 794 
z
" transform="scale(0.015625)"/>
        <path id="DejaVuSans-32" d="M 1228 531 
L 3431 531 
L 3431 0 
L 469 0 
L 469 531 
Q 828 903 1448 1529 
Q 2069 2156 2228 2338 
Q 2531 2678 2651 2914 
Q 2772 3150 2772 3378 
Q 2772 3750 2511 3984 
Q 2250 4219 1831 4219 
Q 1534 4219 1204 4116 
Q 875 4013 500 3803 
L 500 4441 
Q 881 4594 1212 4672 
Q 1544 4750 1819 4750 
Q 2544 4750 2975 4387 
Q 3406 4025 3406 3419 
Q 3406 3131 3298 2873 
Q 3191 2616 2906 2266 
Q 2828 2175 2409 1742 
Q 1991 1309 1228 531 
z
" transform="scale(0.015625)"/>
       </defs>
       <use xlink:href="#DejaVuSans-30"/>
       <use xlink:href="#DejaVuSans-2e" x="63.623047"/>
       <use xlink:href="#DejaVuSans-32" x="95.410156"/>
      </g>
     </g>
    </g>
    <g id="ytick_2">
     <g id="line2d_5">
      <path d="M 188.601582 109.08 
C 188.601582 103.695722 187.540997 98.363798 185.480523 93.389374 
C 183.420048 88.414949 180.399757 83.894763 176.592497 80.087503 
C 172.785237 76.280243 168.265051 73.259952 163.290626 71.199477 
C 158.316202 69.139003 152.984278 68.078418 147.6 68.078418 
C 142.215722 68.078418 136.883798 69.139003 131.909374 71.199477 
C 126.934949 73.259952 122.414763 76.280243 118.607503 80.087503 
C 114.800243 83.894763 111.779952 88.414949 109.719477 93.389374 
C 107.659003 98.363798 106.598418 103.695722 106.598418 109.08 
C 106.598418 114.464278 107.659003 119.796202 109.719477 124.770626 
C 111.779952 129.745051 114.800243 134.265237 118.607503 138.072497 
C 122.414763 141.879757 126.934949 144.900048 131.909374 146.960523 
C 136.883798 149.020997 142.215722 150.081582 147.6 150.081582 
C 152.984278 150.081582 158.316202 149.020997 163.290626 146.960523 
C 168.265051 144.900048 172.785237 141.879757 176.592497 138.072497 
C 180.399757 134.265237 183.420048 129.745051 185.480523 124.770626 
C 187.540997 119.796202 188.601582 114.464278 188.601582 109.08 
" clip-path="url(#pb0197b048b)" style="fill: none; stroke: #b0b0b0; stroke-width: 0.8; stroke-linecap: square"/>
     </g>
     <g id="text_5">
      <!-- 0.4 -->
      <g transform="translate(185.480523 91.309686) scale(0.1 -0.1)">
       <defs>
        <path id="DejaVuSans-34" d="M 2419 4116 
L 825 1625 
L 2419 1625 
L 2419 4116 
z
M 2253 4666 
L 3047 4666 
L 3047 1625 
L 3713 1625 
L 3713 1100 
L 3047 1100 
L 3047 0 
L 2419 0 
L 2419 1100 
L 313 1100 
L 313 1709 
L 2253 4666 
z
" transform="scale(0.015625)"/>
       </defs>
       <use xlink:href="#DejaVuSans-30"/>
       <use xlink:href="#DejaVuSans-2e" x="63.623047"/>
       <use xlink:href="#DejaVuSans-34" x="95.410156"/>
      </g>
     </g>
    </g>
    <g id="ytick_3">
     <g id="line2d_6">
      <path d="M 209.102373 109.08 
C 209.102373 101.003582 207.511495 93.005698 204.420784 85.544061 
C 201.330073 78.082424 196.799635 71.302144 191.088745 65.591255 
C 185.377856 59.880365 178.597576 55.349927 171.135939 52.259216 
C 163.674302 49.168505 155.676418 47.577627 147.6 47.577627 
C 139.523582 47.577627 131.525698 49.168505 124.064061 52.259216 
C 116.602424 55.349927 109.822144 59.880365 104.111255 65.591255 
C 98.400365 71.302144 93.869927 78.082424 90.779216 85.544061 
C 87.688505 93.005698 86.097627 101.003582 86.097627 109.08 
C 86.097627 117.156418 87.688505 125.154302 90.779216 132.615939 
C 93.869927 140.077576 98.400365 146.857856 104.111255 152.568745 
C 109.822144 158.279635 116.602424 162.810073 124.064061 165.900784 
C 131.525698 168.991495 139.523582 170.582373 147.6 170.582373 
C 155.676418 170.582373 163.674302 168.991495 171.135939 165.900784 
C 178.597576 162.810073 185.377856 158.279635 191.088745 152.568745 
C 196.799635 146.857856 201.330073 140.077576 204.420784 132.615939 
C 207.511495 125.154302 209.102373 117.156418 209.102373 109.08 
" clip-path="url(#pb0197b048b)" style="fill: none; stroke: #b0b0b0; stroke-width: 0.8; stroke-linecap: square"/>
     </g>
     <g id="text_6">
      <!-- 0.6 -->
      <g transform="translate(204.420784 83.464373) scale(0.1 -0.1)">
       <defs>
        <path id="DejaVuSans-36" d="M 2113 2584 
Q 1688 2584 1439 2293 
Q 1191 2003 1191 1497 
Q 1191 994 1439 701 
Q 1688 409 2113 409 
Q 2538 409 2786 701 
Q 3034 994 3034 1497 
Q 3034 2003 2786 2293 
Q 2538 2584 2113 2584 
z
M 3366 4563 
L 3366 3988 
Q 3128 4100 2886 4159 
Q 2644 4219 2406 4219 
Q 1781 4219 1451 3797 
Q 1122 3375 1075 2522 
Q 1259 2794 1537 2939 
Q 1816 3084 2150 3084 
Q 2853 3084 3261 2657 
Q 3669 2231 3669 1497 
Q 3669 778 3244 343 
Q 2819 -91 2113 -91 
Q 1303 -91 875 529 
Q 447 1150 447 2328 
Q 447 3434 972 4092 
Q 1497 4750 2381 4750 
Q 2619 4750 2861 4703 
Q 3103 4656 3366 4563 
z
" transform="scale(0.015625)"/>
       </defs>
       <use xlink:href="#DejaVuSans-30"/>
       <use xlink:href="#DejaVuSans-2e" x="63.623047"/>
       <use xlink:href="#DejaVuSans-36" x="95.410156"/>
      </g>
     </g>
    </g>
    <g id="ytick_4">
     <g id="line2d_7">
      <path d="M 229.603164 109.08 
C 229.603164 98.311443 227.481993 87.647597 223.361045 77.698748 
C 219.240097 67.749898 213.199513 58.709526 205.584994 51.095006 
C 197.970474 43.480487 188.930102 37.439903 178.981252 33.318955 
C 169.032403 29.198007 158.368557 27.076836 147.6 27.076836 
C 136.831443 27.076836 126.167597 29.198007 116.218748 33.318955 
C 106.269898 37.439903 97.229526 43.480487 89.615006 51.095006 
C 82.000487 58.709526 75.959903 67.749898 71.838955 77.698748 
C 67.718007 87.647597 65.596836 98.311443 65.596836 109.08 
C 65.596836 119.848557 67.718007 130.512403 71.838955 140.461252 
C 75.959903 150.410102 82.000487 159.450474 89.615006 167.064994 
C 97.229526 174.679513 106.269898 180.720097 116.218748 184.841045 
C 126.167597 188.961993 136.831443 191.083164 147.6 191.083164 
C 158.368557 191.083164 169.032403 188.961993 178.981252 184.841045 
C 188.930102 180.720097 197.970474 174.679513 205.584994 167.064994 
C 213.199513 159.450474 219.240097 150.410102 223.361045 140.461252 
C 227.481993 130.512403 229.603164 119.848557 229.603164 109.08 
" clip-path="url(#pb0197b048b)" style="fill: none; stroke: #b0b0b0; stroke-width: 0.8; stroke-linecap: square"/>
     </g>
     <g id="text_7">
      <!-- 0.8 -->
      <g transform="translate(223.361045 75.61906) scale(0.1 -0.1)">
       <defs>
        <path id="DejaVuSans-38" d="M 2034 2216 
Q 1584 2216 1326 1975 
Q 1069 1734 1069 1313 
Q 1069 891 1326 650 
Q 1584 409 2034 409 
Q 2484 409 2743 651 
Q 3003 894 3003 1313 
Q 3003 1734 2745 1975 
Q 2488 2216 2034 2216 
z
M 1403 2484 
Q 997 2584 770 2862 
Q 544 3141 544 3541 
Q 544 4100 942 4425 
Q 1341 4750 2034 4750 
Q 2731 4750 3128 4425 
Q 3525 4100 3525 3541 
Q 3525 3141 3298 2862 
Q 3072 2584 2669 2484 
Q 3125 2378 3379 2068 
Q 3634 1759 3634 1313 
Q 3634 634 3220 271 
Q 2806 -91 2034 -91 
Q 1263 -91 848 271 
Q 434 634 434 1313 
Q 434 1759 690 2068 
Q 947 2378 1403 2484 
z
M 1172 3481 
Q 1172 3119 1398 2916 
Q 1625 2713 2034 2713 
Q 2441 2713 2670 2916 
Q 2900 3119 2900 3481 
Q 2900 3844 2670 4047 
Q 2441 4250 2034 4250 
Q 1625 4250 1398 4047 
Q 1172 3844 1172 3481 
z
" transform="scale(0.015625)"/>
       </defs>
       <use xlink:href="#DejaVuSans-30"/>
       <use xlink:href="#DejaVuSans-2e" x="63.623047"/>
       <use xlink:href="#DejaVuSans-38" x="95.410156"/>
      </g>
     </g>
    </g>
   </g>
   <g id="patch_6">
    <path d="M 230.76 109.08 
C 230.76 98.159529 228.608905 87.345246 224.429822 77.256046 
C 220.250739 67.166846 214.124939 57.998939 206.403 50.277 
C 198.681061 42.555061 189.513154 36.429261 179.423954 32.250178 
C 169.334754 28.071095 158.520471 25.92 147.6 25.92 
C 136.679529 25.92 125.865246 28.071095 115.776046 32.250178 
C 105.686846 36.429261 96.518939 42.555061 88.797 50.277 
C 81.075061 57.998939 74.949261 67.166846 70.770178 77.256046 
C 66.591095 87.345246 64.44 98.159529 64.44 109.08 
C 64.44 120.000471 66.591095 130.814754 70.770178 140.903954 
C 74.949261 150.993154 81.075061 160.161061 88.797 167.883 
C 96.518939 175.604939 105.686846 181.730739 115.776046 185.909822 
C 125.865246 190.088905 136.679529 192.24 147.6 192.24 
C 158.520471 192.24 169.334754 190.088905 179.423954 185.909822 
C 189.513154 181.730739 198.681061 175.604939 206.403 167.883 
C 214.124939 160.161061 220.250739 150.993154 224.429822 140.903954 
C 228.608905 130.814754 230.76 120.000471 230.76 109.08 
" style="fill: none; stroke: #000000; stroke-width: 0.8; stroke-linejoin: miter; stroke-linecap: square"/>
   </g>
   <g id="text_8">
    <!-- Top Ranking Countries -->
    <g transform="translate(80.625937 14.097909) scale(0.12 -0.12)">
     <defs>
      <path id="DejaVuSans-54" d="M -19 4666 
L 3928 4666 
L 3928 4134 
L 2272 4134 
L 2272 0 
L 1638 0 
L 1638 4134 
L -19 4134 
L -19 4666 
z
" transform="scale(0.015625)"/>
      <path id="DejaVuSans-70" d="M 1159 525 
L 1159 -1331 
L 581 -1331 
L 581 3500 
L 1159 3500 
L 1159 2969 
Q 1341 3281 1617 3432 
Q 1894 3584 2278 3584 
Q 2916 3584 3314 3078 
Q 3713 2572 3713 1747 
Q 3713 922 3314 415 
Q 2916 -91 2278 -91 
Q 1894 -91 1617 61 
Q 1341 213 1159 525 
z
M 3116 1747 
Q 3116 2381 2855 2742 
Q 2594 3103 2138 3103 
Q 1681 3103 1420 2742 
Q 1159 2381 1159 1747 
Q 1159 1113 1420 752 
Q 1681 391 2138 391 
Q 2594 391 2855 752 
Q 3116 1113 3116 1747 
z
" transform="scale(0.015625)"/>
      <path id="DejaVuSans-20" transform="scale(0.015625)"/>
      <path id="DejaVuSans-52" d="M 2841 2188 
Q 3044 2119 3236 1894 
Q 3428 1669 3622 1275 
L 4263 0 
L 3584 0 
L 2988 1197 
Q 2756 1666 2539 1819 
Q 2322 1972 1947 1972 
L 1259 1972 
L 1259 0 
L 628 0 
L 628 4666 
L 2053 4666 
Q 2853 4666 3247 4331 
Q 3641 3997 3641 3322 
Q 3641 2881 3436 2590 
Q 3231 2300 2841 2188 
z
M 1259 4147 
L 1259 2491 
L 2053 2491 
Q 2509 2491 2742 2702 
Q 2975 2913 2975 3322 
Q 2975 3731 2742 3939 
Q 2509 4147 2053 4147 
L 1259 4147 
z
" transform="scale(0.015625)"/>
      <path id="DejaVuSans-6b" d="M 581 4863 
L 1159 4863 
L 1159 1991 
L 2875 3500 
L 3609 3500 
L 1753 1863 
L 3688 0 
L 2938 0 
L 1159 1709 
L 1159 0 
L 581 0 
L 581 4863 
z
" transform="scale(0.015625)"/>
      <path id="DejaVuSans-67" d="M 2906 1791 
Q 2906 2416 2648 2759 
Q 2391 3103 1925 3103 
Q 1463 3103 1205 2759 
Q 947 2416 947 1791 
Q 947 1169 1205 825 
Q 1463 481 1925 481 
Q 2391 481 2648 825 
Q 2906 1169 2906 1791 
z
M 3481 434 
Q 3481 -459 3084 -895 
Q 2688 -1331 1869 -1331 
Q 1566 -1331 1297 -1286 
Q 1028 -1241 775 -1147 
L 775 -588 
Q 1028 -725 1275 -790 
Q 1522 -856 1778 -856 
Q 2344 -856 2625 -561 
Q 2906 -266 2906 331 
L 2906 616 
Q 2728 306 2450 153 
Q 2172 0 1784 0 
Q 1141 0 747 490 
Q 353 981 353 1791 
Q 353 2603 747 3093 
Q 1141 3584 1784 3584 
Q 2172 3584 2450 3431 
Q 2728 3278 2906 2969 
L 2906 3500 
L 3481 3500 
L 3481 434 
z
" transform="scale(0.015625)"/>
      <path id="DejaVuSans-43" d="M 4122 4306 
L 4122 3641 
Q 3803 3938 3442 4084 
Q 3081 4231 2675 4231 
Q 1875 4231 1450 3742 
Q 1025 3253 1025 2328 
Q 1025 1406 1450 917 
Q 1875 428 2675 428 
Q 3081 428 3442 575 
Q 3803 722 4122 1019 
L 4122 359 
Q 3791 134 3420 21 
Q 3050 -91 2638 -91 
Q 1578 -91 968 557 
Q 359 1206 359 2328 
Q 359 3453 968 4101 
Q 1578 4750 2638 4750 
Q 3056 4750 3426 4639 
Q 3797 4528 4122 4306 
z
" transform="scale(0.015625)"/>
      <path id="DejaVuSans-75" d="M 544 1381 
L 544 3500 
L 1119 3500 
L 1119 1403 
Q 1119 906 1312 657 
Q 1506 409 1894 409 
Q 2359 409 2629 706 
Q 2900 1003 2900 1516 
L 2900 3500 
L 3475 3500 
L 3475 0 
L 2900 0 
L 2900 538 
Q 2691 219 2414 64 
Q 2138 -91 1772 -91 
Q 1169 -91 856 284 
Q 544 659 544 1381 
z
M 1991 3584 
L 1991 3584 
z
" transform="scale(0.015625)"/>
     </defs>
     <use xlink:href="#DejaVuSans-54"/>
     <use xlink:href="#DejaVuSans-6f" x="44.083984"/>
     <use xlink:href="#DejaVuSans-70" x="105.265625"/>
     <use xlink:href="#DejaVuSans-20" x="168.742188"/>
     <use xlink:href="#DejaVuSans-52" x="200.529297"/>
     <use xlink:href="#DejaVuSans-61" x="267.761719"/>
     <use xlink:href="#DejaVuSans-6e" x="329.041016"/>
     <use xlink:href="#DejaVuSans-6b" x="392.419922"/>
     <use xlink:href="#DejaVuSans-69" x="450.330078"/>
     <use xlink:href="#DejaVuSans-6e" x="478.113281"/>
     <use xlink:href="#DejaVuSans-67" x="541.492188"/>
     <use xlink:href="#DejaVuSans-20" x="604.96875"/>
     <use xlink:href="#DejaVuSans-43" x="636.755859"/>
     <use xlink:href="#DejaVuSans-6f" x="706.580078"/>
     <use xlink:href="#DejaVuSans-75" x="767.761719"/>
     <use xlink:href="#DejaVuSans-6e" x="831.140625"/>
     <use xlink:href="#DejaVuSans-74" x="894.519531"/>
     <use xlink:href="#DejaVuSans-72" x="933.728516"/>
     <use xlink:href="#DejaVuSans-69" x="974.841797"/>
     <use xlink:href="#DejaVuSans-65" x="1002.625"/>
     <use xlink:href="#DejaVuSans-73" x="1064.148438"/>
    </g>
   </g>
  </g>
  <g id="legend_1">
   <g id="patch_7">
    <path d="M 200.220313 211 
L 281 211 
Q 283 211 283 209 
L 283 165.965625 
Q 283 163.965625 281 163.965625 
L 200.220313 163.965625 
Q 198.220313 163.965625 198.220313 165.965625 
L 198.220313 209 
Q 198.220313 211 200.220313 211 
z
" style="fill: #ffffff; opacity: 0.8; stroke: #cccccc; stroke-linejoin: miter"/>
   </g>
   <g id="patch_8">
    <path d="M 202.220313 175.564063 
L 222.220313 175.564063 
L 222.220313 168.564063 
L 202.220313 168.564063 
z
" style="fill: #1f77b4; opacity: 0.5"/>
   </g>
   <g id="text_9">
    <!-- Argentina -->
    <g transform="translate(230.220313 175.564063) scale(0.1 -0.1)">
     <use xlink:href="#DejaVuSans-41"/>
     <use xlink:href="#DejaVuSans-72" x="68.408203"/>
     <use xlink:href="#DejaVuSans-67" x="107.771484"/>
     <use xlink:href="#DejaVuSans-65" x="171.248047"/>
     <use xlink:href="#DejaVuSans-6e" x="232.771484"/>
     <use xlink:href="#DejaVuSans-74" x="296.150391"/>
     <use xlink:href="#DejaVuSans-69" x="335.359375"/>
     <use xlink:href="#DejaVuSans-6e" x="363.142578"/>
     <use xlink:href="#DejaVuSans-61" x="426.521484"/>
    </g>
   </g>
   <g id="patch_9">
    <path d="M 202.220313 190.242188 
L 222.220313 190.242188 
L 222.220313 183.242188 
L 202.220313 183.242188 
z
" style="fill: #ff7f0e; opacity: 0.5"/>
   </g>
   <g id="text_10">
    <!-- Paraguay -->
    <g transform="translate(230.220313 190.242188) scale(0.1 -0.1)">
     <defs>
      <path id="DejaVuSans-50" d="M 1259 4147 
L 1259 2394 
L 2053 2394 
Q 2494 2394 2734 2622 
Q 2975 2850 2975 3272 
Q 2975 3691 2734 3919 
Q 2494 4147 2053 4147 
L 1259 4147 
z
M 628 4666 
L 2053 4666 
Q 2838 4666 3239 4311 
Q 3641 3956 3641 3272 
Q 3641 2581 3239 2228 
Q 2838 1875 2053 1875 
L 1259 1875 
L 1259 0 
L 628 0 
L 628 4666 
z
" transform="scale(0.015625)"/>
     </defs>
     <use xlink:href="#DejaVuSans-50"/>
     <use xlink:href="#DejaVuSans-61" x="55.802734"/>
     <use xlink:href="#DejaVuSans-72" x="117.082031"/>
     <use xlink:href="#DejaVuSans-61" x="158.195312"/>
     <use xlink:href="#DejaVuSans-67" x="219.474609"/>
     <use xlink:href="#DejaVuSans-75" x="282.951172"/>
     <use xlink:href="#DejaVuSans-61" x="346.330078"/>
     <use xlink:href="#DejaVuSans-79" x="407.609375"/>
    </g>
   </g>
   <g id="patch_10">
    <path d="M 202.220313 204.920312 
L 222.220313 204.920312 
L 222.220313 197.920312 
L 202.220313 197.920312 
z
" style="fill: #2ca02c; opacity: 0.5"/>
   </g>
   <g id="text_11">
    <!-- Bolivia -->
    <g transform="translate(230.220313 204.920312) scale(0.1 -0.1)">
     <defs>
      <path id="DejaVuSans-42" d="M 1259 2228 
L 1259 519 
L 2272 519 
Q 2781 519 3026 730 
Q 3272 941 3272 1375 
Q 3272 1813 3026 2020 
Q 2781 2228 2272 2228 
L 1259 2228 
z
M 1259 4147 
L 1259 2741 
L 2194 2741 
Q 2656 2741 2882 2914 
Q 3109 3088 3109 3444 
Q 3109 3797 2882 3972 
Q 2656 4147 2194 4147 
L 1259 4147 
z
M 628 4666 
L 2241 4666 
Q 2963 4666 3353 4366 
Q 3744 4066 3744 3513 
Q 3744 3084 3544 2831 
Q 3344 2578 2956 2516 
Q 3422 2416 3680 2098 
Q 3938 1781 3938 1306 
Q 3938 681 3513 340 
Q 3088 0 2303 0 
L 628 0 
L 628 4666 
z
" transform="scale(0.015625)"/>
     </defs>
     <use xlink:href="#DejaVuSans-42"/>
     <use xlink:href="#DejaVuSans-6f" x="68.603516"/>
     <use xlink:href="#DejaVuSans-6c" x="129.785156"/>
     <use xlink:href="#DejaVuSans-69" x="157.568359"/>
     <use xlink:href="#DejaVuSans-76" x="185.351562"/>
     <use xlink:href="#DejaVuSans-69" x="244.53125"/>
     <use xlink:href="#DejaVuSans-61" x="272.314453"/>
    </g>
   </g>
  </g>
 </g>
 <defs>
  <clipPath id="pb0197b048b">
   <path d="M 230.76 109.08 
C 230.76 98.159529 228.608905 87.345246 224.429822 77.256046 
C 220.250739 67.166846 214.124939 57.998939 206.403 50.277 
C 198.681061 42.555061 189.513154 36.429261 179.423954 32.250178 
C 169.334754 28.071095 158.520471 25.92 147.6 25.92 
C 136.679529 25.92 125.865246 28.071095 115.776046 32.250178 
C 105.686846 36.429261 96.518939 42.555061 88.797 50.277 
C 81.075061 57.998939 74.949261 67.166846 70.770178 77.256046 
C 66.591095 87.345246 64.44 98.159529 64.44 109.08 
C 64.44 120.000471 66.591095 130.814754 70.770178 140.903954 
C 74.949261 150.993154 81.075061 160.161061 88.797 167.883 
C 96.518939 175.604939 105.686846 181.730739 115.776046 185.909822 
C 125.865246 190.088905 136.679529 192.24 147.6 192.24 
C 158.520471 192.24 169.334754 190.088905 179.423954 185.909822 
C 189.513154 181.730739 198.681061 175.604939 206.403 167.883 
C 214.124939 160.161061 220.250739 150.993154 224.429822 140.903954 
C 228.608905 130.814754 230.76 120.000471 230.76 109.08 
M 147.6 109.08 
C 147.6 109.08 147.6 109.08 147.6 109.08 
C 147.6 109.08 147.6 109.08 147.6 109.08 
C 147.6 109.08 147.6 109.08 147.6 109.08 
C 147.6 109.08 147.6 109.08 147.6 109.08 
C 147.6 109.08 147.6 109.08 147.6 109.08 
C 147.6 109.08 147.6 109.08 147.6 109.08 
C 147.6 109.08 147.6 109.08 147.6 109.08 
C 147.6 109.08 147.6 109.08 147.6 109.08 
C 147.6 109.08 147.6 109.08 147.6 109.08 
C 147.6 109.08 147.6 109.08 147.6 109.08 
C 147.6 109.08 147.6 109.08 147.6 109.08 
C 147.6 109.08 147.6 109.08 147.6 109.08 
C 147.6 109.08 147.6 109.08 147.6 109.08 
C 147.6 109.08 147.6 109.08 147.6 109.08 
C 147.6 109.08 147.6 109.08 147.6 109.08 
C 147.6 109.08 147.6 109.08 147.6 109.08 
z
"/>
  </clipPath>
 </defs>
</svg>
